HIERARCHY
ROOT pelvis
{
  OFFSET 0 100 0
  CHANNELS 6 Xposition Yposition Zposition Zrotation Xrotation Yrotation
  JOINT pelvis_right_femur
  {
    OFFSET -10.78128 -3.44521 -0.5502486
    CHANNELS 3 Zrotation Xrotation Yrotation
    JOINT right_femur_tibia
    {
      OFFSET -0.8047443 -44.0398 -0.1307829
      CHANNELS 3 Zrotation Xrotation Yrotation
      JOINT right_tibia_foot
      {
        OFFSET 3.006224 -47.83518 -5
        CHANNELS 3 Zrotation Xrotation Yrotation
        End Site
        {
          OFFSET 0 -5 15
        }
      }
    }
  }
  JOINT pelvis_left_femur
  {
    OFFSET 10.78128 -3.44521 -0.5502486
    CHANNELS 3 Zrotation Xrotation Yrotation
    JOINT left_femur_tibia
    {
      OFFSET 0.8047443 -44.0398 -0.1307829
      CHANNELS 3 Zrotation Xrotation Yrotation
      JOINT left_tibia_foot
      {
        OFFSET -4.370144 -48.10324 -4.275266
        CHANNELS 3 Zrotation Xrotation Yrotation
        End Site
        {
          OFFSET 0 -5 15
        }
      }
    }
  }
  JOINT pelvis_spine1
  {
    OFFSET 0 6.468898 -3.129235
    CHANNELS 3 Zrotation Xrotation Yrotation
    JOINT spine1
    {
      OFFSET 0 23.15396 4.99043
      CHANNELS 3 Zrotation Xrotation Yrotation
      JOINT spine2
      {
        OFFSET 0 20.79997 -5.064912
        CHANNELS 3 Zrotation Xrotation Yrotation
        JOINT neck
        {
          OFFSET 0 14.38658 9.616178
          CHANNELS 3 Zrotation Xrotation Yrotation
          End Site
          {
            OFFSET 0 20 0
          }
        }
      }
      JOINT right_manubrium
      {
        OFFSET -5.722621 16.35077 3.967754
        CHANNELS 3 Zrotation Xrotation Yrotation
        JOINT right_clavicle
        {
          OFFSET -13.16364 1.694482 -4.693211
          CHANNELS 3 Zrotation Xrotation Yrotation
          JOINT right_humerus
          {
            OFFSET -28.5034 -0.3100689 -2.792744
            CHANNELS 3 Zrotation Xrotation Yrotation
            JOINT right_radius
            {
              OFFSET -25.15693 0.02248979 -1.271978
              CHANNELS 3 Zrotation Xrotation Yrotation
              End Site
              {
                OFFSET -15 0 0
              }
            }
          }
        }
      }
      JOINT left_manubrium
      {
        OFFSET 5.722621 16.35077 3.967754
        CHANNELS 3 Zrotation Xrotation Yrotation
        JOINT left_clavicle
        {
          OFFSET 13.16364 1.694482 -4.693211
          CHANNELS 3 Zrotation Xrotation Yrotation
          JOINT left_humerus
          {
            OFFSET 29.39168 -1.063119 -2.237045
            CHANNELS 3 Zrotation Xrotation Yrotation
            JOINT left_radius
            {
              OFFSET 24.59957 -0.9528479 0.9047498
              CHANNELS 3 Zrotation Xrotation Yrotation
              End Site
              {
                OFFSET 15 -0 -0
              }
            }
          }
        }
      }
    }
  }
}
MOTION
Frames: 11
Frame Time: 0.0416666666667
0 103.5113 0 -0.4370279 -0.06396654 -0.07003275 3.834317 -16.23317 7.445556 -0 36.00335 -0 -6.03259 -16.28668 -2.363471 -5.526777 7.003568 -20.25694 -0 5.340214 -0 7.358769 -17.25522 24.77903 -3.036079 -4.853303 4.581257 3.217841 10.49171 -9.01185 0.8911511 20.84202 6.990642 2.788108 -25.74961 9.477758 6.658516 -20.6424 12.67351 83.7638 31.31013 -17.73182 -0 0 17.64105 -10.99145 11.08433 5.124167 7.977266 -22.17551 1.270707 -93.77655 18.44112 20.73683 0 0 -9.007239 15.93632 18.6729 -6.868834
0.3944624 103.1091 2.124724 -0.7100526 0.4365683 -0.09248647 4.45955 -18.61831 7.451212 -0 34.22665 -0 -6.285113 -15.27803 -2.237613 -5.38325 7.919483 -20.06396 -0 5.846692 -0 6.912457 -17.96872 24.27274 -2.874911 -4.339694 4.356945 3.315571 10.17993 -9.027426 0.9265955 20.68869 7.163699 2.908169 -26.12409 9.676731 6.334016 -20.26933 12.45602 84.23076 31.65345 -18.19523 -0 0 17.14241 -10.51895 10.58705 4.910314 8.036804 -22.10831 1.29485 -93.39307 18.84511 20.21343 0 0 -10.10211 15.82401 18.12241 -6.620833
0.4477078 102.4713 6.58989 -2.888407 -0.6106461 0.04149948 7.061377 -20.34793 0.9061167 -0 19.77744 -0 -9.330623 -6.290916 -0.0155645 -2.276479 7.514536 -14.14081 -0 20.28602 -0 -5.387193 -17.24924 13.99466 -0.2445345 -1.1405 1.567951 3.424027 8.667378 -8.401011 0.5797362 21.40526 8.16524 3.644143 -25.36246 9.251666 2.429428 -17.27655 12.48555 87.20505 23.73784 -19.34319 -0 0 13.03864 -15.40396 9.576725 6.504833 8.894936 -22.39306 0.6098095 -92.84391 18.8845 16.24249 0 0 -8.093368 14.8837 18.19339 -9.073041
0.4789519 101.2258 11.04607 -1.237304 -5.348977 -0.1776036 3.945161 -14.03516 -5.022705 -0 16.60123 -0 -8.951564 -2.651837 1.521893 -2.255856 4.942031 -10.41903 -0 20.72315 -0 -1.916769 -14.84835 14.38646 -0.6796464 -2.937868 2.264782 2.315401 12.30391 -8.095759 0.3795529 23.17621 7.443795 3.654078 -21.71374 7.345619 1.364712 -19.00215 13.73183 88.73719 16.23303 -20.03026 -0 0 11.43422 -23.53982 12.2933 9.828704 8.702352 -25.94812 -4.027827 -91.26551 16.16192 14.22882 0 0 -10.80714 17.64691 20.54357 -11.89093
0.1222926 99.57723 16.39413 0.007249198 -15.81008 -1.379869 3.622557 -1.070809 -14.91637 -0 3.335476 -0 -12.19234 6.979606 2.314018 -0.4202483 -0.5986971 -1.926976 -0 37.77847 -0 1.440018 -6.442422 13.77068 0.6627336 -5.399104 2.783026 -0.4878642 18.95641 -4.52934 2.58765 27.79231 3.423212 4.399151 -12.0133 2.908544 -1.478456 -19.49163 14.57539 91.69166 -4.447958 -18.54443 -0 0 8.173964 -40.33146 16.97664 19.44415 6.825387 -30.66766 -16.30705 -93.76605 15.95524 13.20244 0 0 -9.552843 15.3213 28.82898 -5.015897
-0.265561 100.0454 21.87566 -1.311248 -11.53323 -2.55636 6.61897 -1.426803 -6.84424 -0 6.306658 -0 -11.80101 2.314291 0.1564468 -0.2261078 -2.423166 -4.347196 -0 45.41776 -0 -1.210863 -6.546084 15.21578 1.297967 -4.085996 4.154339 0.5330722 17.01591 -6.662956 2.031168 24.83134 3.90913 2.768866 -17.67392 5.22085 -2.849365 -21.36715 13.38057 93.03599 6.990464 -19.8568 -0 0 11.44379 -29.90415 15.11518 12.49835 6.356877 -27.6913 -10.28328 -93.237 15.67382 18.36847 0 0 -9.891455 15.28403 22.77072 -6.609279
-0.6091891 100.7376 27.21273 -1.720073 -6.917575 -2.852106 7.50778 -2.179163 -1.354939 -0 9.847521 -0 -10.93032 -3.121439 -0.2185802 -0.6395286 -4.809997 -6.891626 -0 45.89393 -0 -3.67943 -7.379682 15.42735 1.060944 -2.389702 4.935962 1.359993 14.096 -7.722899 1.046989 22.85092 5.313234 2.270679 -22.42962 7.04384 -2.117232 -21.66061 12.63921 92.67937 18.47789 -20.49888 -0 0 13.2955 -21.51777 12.20011 8.072378 6.289614 -24.53261 -4.809015 -92.67437 16.95559 21.14746 0 0 -10.47132 14.69664 17.05502 -7.410523
-0.9463245 101.0234 32.54549 -1.70953 -6.453602 -3.0897 7.578857 -0.9043589 -0.4045488 -0 10.15862 -0 -10.6937 -4.488393 -0.3805517 -0.5059343 -6.614241 -7.04039 -0 45.77447 -0 -3.878473 -7.038649 15.74998 0.9680735 -2.00874 5.251312 1.373357 13.73325 -7.66797 0.9510671 22.56508 5.369888 2.127533 -22.95322 7.223006 -2.036451 -21.98259 12.53414 92.43215 20.33124 -19.99446 -0 0 14.1001 -20.42596 11.82618 7.768342 6.119441 -23.79966 -4.054095 -92.78891 17.17399 22.14053 0 0 -10.21279 14.15304 15.98543 -6.896902
-1.279712 101.1985 37.83948 -1.703128 -6.411599 -3.313175 7.573726 0.1844747 -0.04113901 -0 10.19941 -0 -10.48564 -5.246894 -0.4881186 -0.3228986 -7.81043 -7.016475 -0 44.88844 -0 -3.966165 -6.88635 16.04381 0.9066424 -1.820609 5.400832 1.336098 13.59098 -7.570176 0.9358488 22.47013 5.31876 2.01812 -23.03532 7.257115 -2.065913 -22.25677 12.49304 92.19508 20.90107 -19.45646 -0 0 14.76226 -20.14949 11.7209 7.776984 6.078718 -23.40022 -3.732551 -92.97532 17.20587 22.7438 0 0 -9.694937 13.86377 15.61946 -6.678042
-1.616207 101.3307 43.09524 -1.73287 -6.184372 -3.499401 7.571487 0.6518219 0.2407211 -0 10.36374 -0 -10.32303 -5.930953 -0.502962 -0.2648064 -8.401616 -7.184947 -0 43.93711 -0 -4.238077 -6.96778 16.19873 0.84403 -1.627721 5.413932 1.363845 13.26752 -7.497623 0.8974941 22.43071 5.37755 1.986402 -23.19377 7.350396 -1.963139 -22.25816 12.43178 91.86716 21.53444 -19.06471 -0 0 15.14842 -19.71995 11.49382 7.659411 6.137748 -22.99531 -3.305556 -93.17288 17.42954 22.99336 0 0 -9.144071 13.67876 15.35063 -6.636133
-1.959693 101.393 48.33254 -1.750769 -6.213643 -3.684204 7.563571 1.099979 0.3154062 -0 10.36894 -0 -10.22605 -6.211632 -0.5442495 -0.1744995 -8.807973 -7.17734 -0 43.27302 -0 -4.296109 -6.964779 16.33566 0.8219097 -1.56585 5.434659 1.345775 13.20034 -7.442125 0.905095 22.42424 5.342373 1.942039 -23.16424 7.353051 -1.987081 -22.35596 12.41488 91.72998 21.58342 -18.78605 -0 0 15.44432 -19.70097 11.46724 7.699955 6.158618 -22.83886 -3.193828 -93.29651 17.43602 23.18997 0 0 -8.78366 13.58815 15.31636 -6.610416
